#!OML:ASF F:\VICON\USERDATA\INSTALL\rory3\rory3.ASF
:FULLY-SPECIFIED
:DEGREES
422
root 0.576583 17.7323 -15.1611 -160.796 -9.51101 -180.557
lowerback -9.07305 0.46069 -2.14862
upperback -12.2569 -1.17801 -0.614058
thorax -7.87722 -1.22339 0.633056
lowerneck -13.6207 -0.0656546 -2.79604
upperneck 36.3256 -4.52916 4.1487
head 15.0956 -3.06805 1.12785
rclavicle -4.82053e-015 5.76476e-015
rhumerus -344.244 36.9271 280.013
rradius 71.2094
rwrist -60.7736
rhand 11.2368 365.847
rfingers 7.12502
rthumb 36.2984 -20.3954
lclavicle -4.82053e-015 5.76476e-015
lhumerus 62.4167 -56.2626 47.8077
lradius 75.7343
lwrist 40.0139
lhand -1.48518 27.185
lfingers 7.12502
lthumb 24.1671 55.6825
rfemur 135.886 -187.43 -162.122
rtibia 44.2185
rfoot 2.83531 -27.2632
rtoes 13.903
lfemur -13.811 -5.25833 -23.5292
ltibia 36.3218
lfoot -10.0663 25.0846
ltoes -10.3674
423
root 0.582545 17.9017 -15.3348 -160.928 -9.75452 -182.013
lowerback -11.8093 -0.321211 -4.07984
upperback -9.69689 -1.45964 -0.52369
thorax -3.53041 -1.11633 1.65268
lowerneck -15.3521 -0.401532 -2.77698
upperneck 35.1442 -4.27205 3.83069
head 14.9121 -2.77027 1.06076
rclavicle -6.8705e-015 -4.77083e-015
rhumerus -337.429 36.8465 285.514
rradius 73.0626
rwrist -60.2165
rhand 10.3494 365.911
rfingers 7.12502
rthumb 35.4576 -20.5372
lclavicle -6.8705e-015 -4.77083e-015
lhumerus 67.4977 -51.7032 43.6385
lradius 76.6053
lwrist 39.4907
lhand 0.225103 26.0315
lfingers 7.12502
lthumb 25.806 54.3011
rfemur 136.531 -187.272 -163.889
rtibia 44.129
rfoot 3.86541 -28.6899
rtoes 18.4151
lfemur -15.121 -5.0788 -25.1818
ltibia 36.2498
lfoot -8.34001 25.6385
ltoes -10.2224
424
root 0.631551 18.0593 -15.5179 -161.367 -9.75267 -181.861
lowerback -12.825 -0.304507 -4.58068
upperback -8.50167 -1.09367 -0.496036
thorax -1.72118 -0.872436 1.95106
lowerneck -15.6749 -0.708179 -2.57782
upperneck 34.655 -4.62537 3.87039
head 14.7722 -2.82302 0.991227
rclavicle 2.88238e-014 6.36111e-015
rhumerus -334.115 35.2714 288.377
rradius 74.4488
rwrist -61.2851
rhand 12.6371 365.82
rfingers 7.12502
rthumb 37.6231 -20.0811
lclavicle 2.88238e-014 6.36111e-015
lhumerus 70.6143 -49.4783 40.9983
lradius 78.086
lwrist 39.6548
lhand 0.0511114 26.3042
lfingers 7.12502
lthumb 25.6393 54.5979
rfemur 137.079 -188.991 -164.192
rtibia 44.0596
rfoot 3.72297 -31.1133
rtoes 23.68
lfemur -16.5843 -4.33464 -25.0192
ltibia 36.3589
lfoot -6.84268 26.1151
ltoes -9.69558
425
root 0.61101 18.208 -15.6669 -161.584 -10.4264 -182.153
lowerback -12.0435 -0.156263 -4.2175
upperback -8.56804 -0.953486 -0.81268
thorax -2.22264 -0.804324 1.44666
lowerneck -15.3244 -0.976647 -2.58974
upperneck 34.8375 -5.13397 3.86356
head 14.8021 -3.07325 0.901584
rclavicle -2.17669e-014 -4.96962e-015
rhumerus -333.045 34.382 290.148
rradius 75.7773
rwrist -61.565
rhand 13.9252 366.302
rfingers 7.12502
rthumb 38.839 -19.2641
lclavicle -2.17669e-014 -4.96962e-015
lhumerus 72.0272 -48.7122 39.7979
lradius 79.6917
lwrist 39.6985
lhand -0.729779 26.8293
lfingers 7.12502
lthumb 24.8912 55.2286
rfemur 137.615 -187.184 -164.115
rtibia 44.1669
rfoot 5.07589 -31.4564
rtoes 27.6904
lfemur -18.0812 -4.16733 -25.4637
ltibia 36.4701
lfoot -6.98721 25.0767
ltoes -10.5252
426
root 0.633381 18.345 -15.8272 -161.77 -10.8707 -181.598
lowerback -11.8249 0.02593 -3.72331
upperback -8.27245 -0.678762 -0.7707
thorax -2.03474 -0.658969 1.23885
lowerneck -15.5496 -1.38707 -2.41469
upperneck 34.732 -5.63393 3.57131
head 14.8122 -3.27309 0.666016
rclavicle 4.60932e-014 5.96354e-015
rhumerus -331.206 33.1422 292.124
rradius 76.9711
rwrist -61.4275
rhand 14.5326 366.634
rfingers 7.12502
rthumb 39.4115 -18.7673
lclavicle 4.60932e-014 5.96354e-015
lhumerus 73.8323 -47.4338 38.4451
lradius 80.5611
lwrist 38.4632
lhand 0.623292 25.0049
lfingers 7.12502
lthumb 26.1872 53.2185
rfemur 137.818 -187.138 -163.421
rtibia 44.1952
rfoot 4.81404 -33.4348
rtoes 32.8955
lfemur -19.9693 -3.91824 -24.8572
ltibia 36.7498
lfoot -5.90097 25.879
ltoes -8.60853
427
root 0.649335 18.4741 -15.9895 -161.835 -11.2334 -181.408
lowerback -12.0064 0.0481009 -3.78397
upperback -7.78142 -0.528086 -0.606943
thorax -1.42087 -0.553033 1.45005
lowerneck -16.054 -1.58709 -2.58102
upperneck 34.7935 -5.87096 3.68503
head 14.9792 -3.34621 0.695963
rclavicle 1.36043e-014 5.1684e-015
rhumerus -329.104 32.0688 294.225
rradius 78.1668
rwrist -61.2007
rhand 14.417 366.656
rfingers 7.12502
rthumb 39.3026 -18.7765
lclavicle 1.36043e-014 5.1684e-015
lhumerus 75.3466 -45.7584 37.6103
lradius 81.1113
lwrist 36.733
lhand 2.35716 22.9672
lfingers 7.12502
lthumb 27.8461 50.9236
rfemur 137.788 -186.668 -163.036
rtibia 44.4581
rfoot 6.51558 -34.7701
rtoes 33.8542
lfemur -21.7103 -3.86897 -24.638
ltibia 36.9311
lfoot -7.02478 25.9574
ltoes -3.41721
428
root 0.65179 18.5865 -16.1676 -162.215 -12.2791 -181.483
lowerback -7.94655 0.542284 -3.16286
upperback -11.0655 -0.690832 -1.23845
thorax -7.20086 -0.779759 0.529736
lowerneck -10.8206 -1.05215 -2.36919
upperneck 36.0312 -6.54966 4.25696
head 14.4096 -3.99555 0.804383
rclavicle -2.26118e-014 3.57812e-015
rhumerus -335.285 32.7631 291.076
rradius 79.6265
rwrist -60.2835
rhand 14.5786 366.937
rfingers 7.12502
rthumb 39.4549 -18.4516
lclavicle -2.26118e-014 3.57812e-015
lhumerus 72.2714 -49.9678 39.4837
lradius 81.9269
lwrist 35.5328
lhand 2.42998 21.8777
lfingers 7.12502
lthumb 27.9157 49.8228
rfemur 138.42 -185.093 -162.483
rtibia 44.7381
rfoot 0.159005 -37.1096
rtoes 44.2496
lfemur -22.9291 -4.19024 -24.5528
ltibia 37.16
lfoot -8.10504 25.4829
ltoes 1.10159
